<svg xmlns="http://www.w3.org/2000/svg" width="1200" height="420" viewBox="0 0 1200 420">
<defs><marker id="ar" markerWidth="10" markerHeight="7" refX="9" refY="3.5" orient="auto"><polygon points="0 0,10 3.5,0 7" fill="#0f172a"/></marker><style>.h{font:18px sans-serif;font-weight:700}.t{font:14px sans-serif}.b{fill:#dbeafe;stroke:#1d4ed8;stroke-width:1.5}.n{stroke:#0f172a;stroke-width:2;marker-end:url(#ar)}.d{stroke:#64748b;stroke-width:1.5;stroke-dasharray:6 4;marker-end:url(#ar)}</style></defs>
<text x="20" y="30" class="h">Stakeholder Value Flow (Current State)</text>
<rect x="20" y="90" width="180" height="58" rx="8" class="b"/><text x="35" y="124" class="t">Signals Ingested</text>
<rect x="240" y="90" width="210" height="58" rx="8" class="b"/><text x="252" y="124" class="t">15m Feature Engineering</text>
<rect x="490" y="90" width="170" height="58" rx="8" class="b"/><text x="510" y="124" class="t">Inference Scoring</text>
<rect x="700" y="90" width="220" height="58" rx="8" class="b"/><text x="715" y="124" class="t">Prediction Publication</text>
<rect x="960" y="90" width="200" height="58" rx="8" class="b"/><text x="975" y="124" class="t">SOC Investigation</text>
<rect x="430" y="280" width="300" height="58" rx="8" class="b"/><text x="448" y="314" class="t">Training Feedback + Baseline Refresh</text>
<line x1="200" y1="119" x2="240" y2="119" class="n"/><line x1="450" y1="119" x2="490" y2="119" class="n"/><line x1="660" y1="119" x2="700" y2="119" class="n"/><line x1="920" y1="119" x2="960" y2="119" class="n"/>
<line x1="1060" y1="148" x2="730" y2="280" class="n"/><line x1="430" y1="309" x2="330" y2="148" class="n"/>
<text x="30" y="200" class="t">Supporting controls:</text>
<text x="30" y="230" class="t">• Backfill + replay restore historical continuity</text>
<text x="30" y="255" class="t">• Monthly inventory + FG-B refresh stabilize feature context</text>
<text x="30" y="280" class="t">• Training verifier + bounded remediation improve model quality</text>
<text x="30" y="305" class="t">• Idempotency locks + native polling improve reliability</text>
<line x1="360" y1="210" x2="340" y2="150" class="d"/><line x1="430" y1="235" x2="540" y2="150" class="d"/><line x1="520" y1="260" x2="570" y2="280" class="d"/><line x1="620" y1="285" x2="810" y2="150" class="d"/>
</svg>
